<svg width="800" height="800" viewBox="0 0 800 800" fill="none" xmlns="http://www.w3.org/2000/svg">
<g clip-path="url(#clip0_11_2)">
<path d="M800 737.5C800 772.019 772.019 800 737.5 800H62.5C27.9813 800 0 772.019 0 737.5V62.5C0 27.9813 27.9813 0 62.5 0H737.5C772.019 0 800 27.9813 800 62.5V737.5Z" fill="#FFE812"/>
<path d="M400 112.5C220.506 112.5 75 227.228 75 368.75C75 460.247 135.831 540.531 227.338 585.866C222.359 603.034 195.347 696.316 194.272 703.644C194.272 703.644 193.625 709.15 197.191 711.25C200.756 713.35 204.95 711.719 204.95 711.719C215.175 710.291 323.522 634.184 342.275 620.969C361.009 623.622 380.3 625 400 625C579.494 625 725 510.275 725 368.75C725 227.228 579.494 112.5 400 112.5Z" fill="black"/>
<path d="M220.312 458.203C209.972 458.203 201.562 450.172 201.562 440.297V328.906H172.306C162.159 328.906 153.906 320.669 153.906 310.547C153.906 300.425 162.163 292.188 172.306 292.188H268.319C278.466 292.188 286.719 300.425 286.719 310.547C286.719 320.669 278.462 328.906 268.319 328.906H239.062V440.297C239.062 450.172 230.653 458.203 220.312 458.203ZM384.725 457.959C376.906 457.959 370.925 454.784 369.122 449.678L359.838 425.372L302.662 425.369L293.372 449.691C291.575 454.788 285.597 457.959 277.778 457.959C273.665 457.964 269.6 457.081 265.859 455.372C260.691 452.987 255.722 446.431 261.416 428.747L306.266 310.697C309.425 301.719 319.022 292.469 331.234 292.191C343.481 292.466 353.078 301.719 356.244 310.716L401.075 428.713C406.781 446.438 401.813 452.997 396.644 455.375C392.902 457.081 388.837 457.963 384.725 457.959ZM349.978 392.159L331.25 338.956L312.522 392.159H349.978ZM431.25 455.469C421.341 455.469 413.281 447.756 413.281 438.281V310.938C413.281 300.597 421.869 292.188 432.422 292.188C442.975 292.188 451.562 300.597 451.562 310.938V421.094H491.406C501.316 421.094 509.375 428.806 509.375 438.281C509.375 447.756 501.316 455.469 491.406 455.469H431.25ZM535.419 457.959C525.078 457.959 516.669 449.55 516.669 439.209V310.938C516.669 300.597 525.078 292.188 535.419 292.188C545.759 292.188 554.169 300.597 554.169 310.938V351.238L606.481 298.925C609.172 296.234 612.869 294.753 616.881 294.753C621.562 294.753 626.263 296.772 629.784 300.291C633.069 303.572 635.028 307.794 635.297 312.178C635.569 316.6 634.097 320.653 631.159 323.594L588.431 366.316L634.584 427.459C636.075 429.421 637.16 431.659 637.778 434.044C638.396 436.428 638.534 438.912 638.184 441.35C637.85 443.79 637.035 446.139 635.786 448.262C634.537 450.385 632.88 452.238 630.909 453.716C627.667 456.18 623.704 457.51 619.631 457.5C616.726 457.514 613.858 456.846 611.257 455.552C608.656 454.258 606.394 452.372 604.653 450.047L560.681 391.784L554.175 398.291V439.2C554.169 444.173 552.191 448.941 548.675 452.457C545.159 455.974 540.392 457.953 535.419 457.959Z" fill="#FFE812"/>
</g>
<defs>
<clipPath id="clip0_11_2">
<rect width="800" height="800" fill="white"/>
</clipPath>
</defs>
</svg>
